# xmcd
#
# Track frame offsets: 
#        150
#        17343
#        42451
#        68422
#        92695
#        118036
#        141149
#        165974
#
# Disc length: 2470 seconds
#
# Revision: 0
# Processed by: cddbd v1.5.2PL0 Copyright (c) Steve Scherf et al.
# Submitted via: ExactAudioCopy v0.99pb4
#
DISCID=5909a408
DTITLE=O'Bryan - Surrender
DYEAR=1986
DGENRE=R&B
TTITLE0=Tenderoni
TTITLE1=You Have Got To Come To Me
TTITLE2=Driving Force
TTITLE3=Maria
TTITLE4=What Goes Around
TTITLE5=Is This For Real
TTITLE6=Dreamin' About
TTITLE7=Surrender
EXTD=
EXTT0=
EXTT1=
EXTT2=
EXTT3=
EXTT4=
EXTT5=
EXTT6=
EXTT7=
PLAYORDER=
